<svg width="710" height="149" viewBox="0 0 710 149" fill="none" xmlns="http://www.w3.org/2000/svg">
<path d="M106.753 122.749L101.486 121.288L98.9473 117.455V73.6511C103.096 70.6723 106.373 66.639 108.44 61.9685C110.507 57.298 111.288 52.1601 110.703 47.0863C110.118 42.0126 108.188 37.1873 105.112 33.11C102.036 29.0326 97.9267 25.8513 93.2087 23.8951C91.8055 18.6267 88.9294 13.8676 84.9174 10.1758C80.9055 6.48406 75.9242 4.01266 70.5575 3.05144C65.1909 2.09022 59.6615 2.67902 54.6176 4.7488C49.5737 6.81858 45.2245 10.2835 42.0799 14.7374C38.3995 14.244 34.654 14.7126 31.2085 16.0974C27.763 17.4823 24.7351 19.7362 22.4198 22.6394C16.6975 24.1349 11.5778 27.3636 7.76249 31.883C3.94718 36.4024 1.62303 41.9912 1.10865 47.8833C0.594267 53.7754 1.91482 59.6824 4.8893 64.7945C7.86377 69.9066 12.3466 73.9737 17.7232 76.4381V124.37L15.0189 128.455L9.75007 129.916C9.3698 130.022 9.02158 130.22 8.73652 130.493C8.45146 130.765 8.23844 131.105 8.11649 131.48C7.99454 131.855 7.96746 132.255 8.03768 132.643C8.10789 133.032 8.27321 133.396 8.51886 133.705L11.9231 137.984L11.6842 143.446C11.667 143.84 11.7478 144.232 11.9192 144.588C12.0907 144.943 12.3475 145.251 12.6667 145.482C12.986 145.714 13.3577 145.864 13.7488 145.917C14.1398 145.97 14.5379 145.926 14.9075 145.787L20.0282 143.873L25.1489 145.787C25.5185 145.926 25.9166 145.97 26.3076 145.917C26.6987 145.864 27.0704 145.714 27.3897 145.482C27.7089 145.251 27.9657 144.943 28.1372 144.588C28.3086 144.232 28.3894 143.84 28.3722 143.446L28.1333 137.984L31.5375 133.705C31.7832 133.396 31.9485 133.032 32.0187 132.643C32.0889 132.255 32.0619 131.855 31.9399 131.48C31.818 131.105 31.6049 130.765 31.3199 130.493C31.0348 130.22 30.6866 130.022 30.3063 129.916L25.0393 128.455L22.5011 124.622V78.1414C24.8421 78.7452 27.2502 79.0499 29.6679 79.0483H44.0016V88.7588C40.6756 89.179 37.5187 90.4667 34.8477 92.4928C32.1768 94.5188 30.0859 97.2119 28.7849 100.302C27.4839 103.391 27.0185 106.769 27.4356 110.095C27.8527 113.421 29.1376 116.58 31.1611 119.252C33.1847 121.925 35.8758 124.019 38.9643 125.322C42.0528 126.626 45.4299 127.095 48.7566 126.681C52.0834 126.267 55.2427 124.985 57.9173 122.964C60.592 120.943 62.6879 118.253 63.9946 115.166C64.1779 114.734 64.2297 114.257 64.1434 113.795C64.0571 113.333 63.8366 112.907 63.5095 112.57C63.1824 112.233 62.7632 112 62.3043 111.9C61.8453 111.8 61.3671 111.837 60.9293 112.007C59.8433 112.429 58.6708 112.58 57.5134 112.446C56.3561 112.313 55.2488 111.899 54.2873 111.241C53.3259 110.583 52.5394 109.7 51.9959 108.67C51.4525 107.639 51.1684 106.492 51.1684 105.327C51.1797 103.461 51.9141 101.672 53.2173 100.336C54.5205 99.0006 56.2909 98.2224 58.156 98.1653C58.6252 98.1535 59.0805 98.0037 59.4651 97.7347C59.8497 97.4656 60.1466 97.0893 60.3186 96.6526C60.4906 96.2159 60.5301 95.7383 60.4323 95.2792C60.3345 94.8202 60.1037 94.4002 59.7686 94.0715C56.7906 91.1383 52.9278 89.2698 48.7794 88.7561V79.0483H75.0578V92.5369L72.3535 96.6223L67.0847 98.0835C66.7045 98.1889 66.3562 98.3869 66.0712 98.6598C65.7861 98.9327 65.5731 99.272 65.4511 99.6473C65.3292 100.023 65.3021 100.422 65.3723 100.811C65.4426 101.199 65.6079 101.564 65.8535 101.873L69.2578 106.151L69.0189 111.613C69.0017 112.007 69.0824 112.4 69.2539 112.755C69.4253 113.11 69.6821 113.418 70.0014 113.65C70.3207 113.882 70.6924 114.031 71.0834 114.084C71.4744 114.137 71.8725 114.093 72.2422 113.955L77.3629 112.04L82.4836 113.955C82.8532 114.093 83.2513 114.137 83.6423 114.084C84.0333 114.031 84.4051 113.882 84.7243 113.65C85.0436 113.418 85.3004 113.11 85.4719 112.755C85.6433 112.4 85.724 112.007 85.7069 111.613L85.468 106.151L88.8722 101.873C89.1178 101.564 89.2832 101.199 89.3534 100.811C89.4236 100.422 89.3965 100.023 89.2746 99.6473C89.1526 99.272 88.9396 98.9327 88.6545 98.6598C88.3695 98.3869 88.0213 98.1889 87.641 98.0835L82.374 96.6223L79.8357 92.7893V79.0483H82.2247C86.3482 79.0528 90.4236 78.1622 94.1694 76.4381V117.203L91.4651 121.288L86.1963 122.749C85.816 122.855 85.4678 123.053 85.1827 123.326C84.8977 123.599 84.6847 123.938 84.5627 124.313C84.4408 124.688 84.4137 125.088 84.4839 125.476C84.5541 125.865 84.7194 126.23 84.9651 126.538L88.3693 130.817L88.1304 136.279C88.1132 136.673 88.194 137.065 88.3654 137.421C88.5369 137.776 88.7937 138.084 89.113 138.316C89.4322 138.548 89.804 138.697 90.195 138.75C90.586 138.803 90.9841 138.759 91.3537 138.621L96.4744 136.706L101.595 138.621C101.965 138.759 102.363 138.803 102.754 138.75C103.145 138.697 103.517 138.548 103.836 138.316C104.155 138.084 104.412 137.776 104.583 137.421C104.755 137.065 104.836 136.673 104.818 136.279L104.58 130.817L107.984 126.538C108.229 126.23 108.395 125.865 108.465 125.476C108.535 125.088 108.508 124.688 108.386 124.313C108.264 123.938 108.051 123.599 107.766 123.326C107.481 123.053 107.133 122.855 106.753 122.749ZM25.5514 133.556L23.8389 135.708C23.4804 136.159 23.2968 136.724 23.322 137.3L23.4414 140.047L20.8649 139.084C20.3257 138.882 19.7319 138.882 19.1927 139.084L16.6162 140.047L16.7356 137.3C16.7607 136.724 16.577 136.159 16.2184 135.708L14.5062 133.556L17.157 132.821C17.7121 132.667 18.1929 132.317 18.5106 131.837L20.0291 129.543L21.5476 131.837C21.8654 132.317 22.3462 132.667 22.9012 132.821L25.5514 133.556ZM46.3905 105.327C46.394 108.286 47.4943 111.139 49.4789 113.334C51.4634 115.529 54.1912 116.911 57.1351 117.212C55.3675 119.21 53.0775 120.675 50.5225 121.443C47.9676 122.21 45.2491 122.249 42.6731 121.556C40.0971 120.862 37.7657 119.464 35.9413 117.517C34.1168 115.571 32.8718 113.154 32.3462 110.539C31.8207 107.923 32.0354 105.213 32.9664 102.713C33.8973 100.213 35.5074 98.0224 37.6156 96.3876C39.7238 94.7529 42.2464 93.7389 44.8995 93.4599C47.5526 93.1808 50.2309 93.6476 52.6331 94.8079C50.736 95.8297 49.1527 97.3485 48.0529 99.2015C46.9532 101.055 46.3785 103.172 46.3905 105.327ZM82.8861 101.723L81.1735 103.876C80.8151 104.327 80.6315 104.892 80.6566 105.467L80.7761 108.214L78.1996 107.251C77.6604 107.05 77.0665 107.05 76.5273 107.251L73.9509 108.214L74.0703 105.467C74.0953 104.892 73.9116 104.327 73.5531 103.876L71.8408 101.723L74.4917 100.988C75.0467 100.834 75.5274 100.485 75.8453 100.004L77.3638 97.7102L78.8822 100.004C79.2001 100.485 79.6808 100.834 80.2359 100.988L82.8861 101.723ZM82.2247 74.2705H79.8357V60.2133C80.3766 59.7295 80.7579 59.0928 80.9291 58.3876C81.1003 57.6823 81.0533 56.9417 80.7943 56.2637C80.5354 55.5858 80.0766 55.0024 79.4789 54.5909C78.8811 54.1793 78.1725 53.959 77.4468 53.959C76.721 53.959 76.0124 54.1793 75.4147 54.5909C74.8169 55.0024 74.3582 55.5858 74.0992 56.2637C73.8403 56.9417 73.7933 57.6823 73.9645 58.3876C74.1356 59.0928 74.5169 59.7295 75.0578 60.2133V74.2705H48.7794V60.2133C49.3204 59.7295 49.7016 59.0928 49.8728 58.3876C50.044 57.6823 49.997 56.9417 49.738 56.2637C49.4791 55.5858 49.0204 55.0024 48.4226 54.5909C47.8249 54.1793 47.1162 53.959 46.3905 53.959C45.6648 53.959 44.9561 54.1793 44.3584 54.5909C43.7606 55.0024 43.3019 55.5858 43.043 56.2637C42.784 56.9417 42.737 57.6823 42.9082 58.3876C43.0793 59.0928 43.4606 59.7295 44.0016 60.2133V74.2705H29.6679C27.2368 74.272 24.8198 73.9011 22.5011 73.1706V60.2133C23.042 59.7295 23.4233 59.0928 23.5944 58.3876C23.7656 57.6823 23.7186 56.9417 23.4596 56.2637C23.2007 55.5858 22.742 55.0024 22.1442 54.5909C21.5465 54.1793 20.8378 53.959 20.1121 53.959C19.3864 53.959 18.6778 54.1793 18.08 54.5909C17.4822 55.0024 17.0235 55.5858 16.7646 56.2637C16.5056 56.9417 16.4586 57.6823 16.6298 58.3876C16.801 59.0928 17.1822 59.7295 17.7232 60.2133V71.0564C14.094 68.9602 11.08 65.9465 8.98342 62.3175C6.88688 58.6886 5.78159 54.572 5.77845 50.381C5.75628 44.9205 7.62669 39.621 11.0715 35.3841C14.4414 31.2145 19.111 28.294 24.3349 27.0888C24.8952 26.9611 25.3907 26.6358 25.7306 26.1723C27.6352 23.5701 30.2516 21.5739 33.2645 20.4242C36.2774 19.2746 39.5584 19.0204 42.7124 19.6923C43.1917 19.7939 43.6905 19.7458 44.1415 19.5543C44.5924 19.3629 44.9736 19.0374 45.2334 18.6221C47.7494 14.5924 51.4095 11.4041 55.7461 9.46455C60.0828 7.52497 64.8993 6.92213 69.5802 7.73302C74.2612 8.54391 78.5941 10.7317 82.0257 14.017C85.4573 17.3023 87.8317 21.5359 88.8456 26.1771C88.9313 26.5719 89.1158 26.9386 89.3817 27.2427C89.6476 27.5469 89.9864 27.7786 90.3662 27.9163C94.1635 29.2913 97.5499 31.607 100.209 34.6468C102.868 37.6866 104.712 41.3511 105.569 45.2976C106.426 49.2441 106.269 53.3436 105.111 57.2125C103.952 61.0815 101.832 64.5934 98.9473 67.4199V60.2133C99.4882 59.7295 99.8695 59.0928 100.041 58.3876C100.212 57.6823 100.165 56.9417 99.9059 56.2637C99.6469 55.5858 99.1882 55.0024 98.5904 54.5909C97.9927 54.1793 97.2841 53.959 96.5583 53.959C95.8326 53.959 95.124 54.1793 94.5262 54.5909C93.9285 55.0024 93.4698 55.5858 93.2108 56.2637C92.9518 56.9417 92.9048 57.6823 93.076 58.3876C93.2472 59.0928 93.6285 59.7295 94.1694 60.2133V71.0564C90.5419 73.1648 86.4203 74.2738 82.2247 74.2705ZM100.285 128.542C99.9266 128.992 99.743 129.558 99.7682 130.133L99.8876 132.88L97.3111 131.917C96.7719 131.715 96.1781 131.715 95.6389 131.917L93.0624 132.88L93.1819 130.133C93.2069 129.557 93.0233 128.992 92.6647 128.542L90.9524 126.389L93.6032 125.654C94.1583 125.5 94.6391 125.151 94.9568 124.67L96.4753 122.376L97.9938 124.67C98.3117 125.15 98.7924 125.5 99.3474 125.654L101.998 126.389L100.285 128.542Z" fill="#F1F5F9" stroke="#F1F5F9" stroke-width="1.38993"/>
<mask id="mask0_2121_398" style="mask-type:alpha" maskUnits="userSpaceOnUse" x="0" y="1" width="112" height="146">
<path d="M106.753 122.749L101.486 121.288L98.9473 117.455V73.6511C103.096 70.6723 106.373 66.639 108.44 61.9685C110.507 57.298 111.288 52.1601 110.703 47.0863C110.118 42.0126 108.188 37.1873 105.112 33.11C102.036 29.0326 97.9267 25.8513 93.2087 23.8951C91.8055 18.6267 88.9294 13.8676 84.9174 10.1758C80.9055 6.48406 75.9242 4.01266 70.5575 3.05144C65.1909 2.09022 59.6615 2.67902 54.6176 4.7488C49.5737 6.81858 45.2245 10.2835 42.0799 14.7374C38.3995 14.244 34.654 14.7126 31.2085 16.0974C27.763 17.4823 24.7351 19.7362 22.4198 22.6394C16.6975 24.1349 11.5778 27.3636 7.76249 31.883C3.94718 36.4024 1.62303 41.9912 1.10865 47.8833C0.594267 53.7754 1.91482 59.6824 4.8893 64.7945C7.86377 69.9066 12.3466 73.9737 17.7232 76.4381V124.37L15.0189 128.455L9.75007 129.916C9.3698 130.022 9.02158 130.22 8.73652 130.493C8.45146 130.765 8.23844 131.105 8.11649 131.48C7.99454 131.855 7.96746 132.255 8.03768 132.643C8.10789 133.032 8.27321 133.396 8.51886 133.705L11.9231 137.984L11.6842 143.446C11.667 143.84 11.7478 144.232 11.9192 144.588C12.0907 144.943 12.3475 145.251 12.6667 145.482C12.986 145.714 13.3577 145.864 13.7488 145.917C14.1398 145.97 14.5379 145.926 14.9075 145.787L20.0282 143.873L25.1489 145.787C25.5185 145.926 25.9166 145.97 26.3076 145.917C26.6987 145.864 27.0704 145.714 27.3897 145.482C27.7089 145.251 27.9657 144.943 28.1372 144.588C28.3086 144.232 28.3894 143.84 28.3722 143.446L28.1333 137.984L31.5375 133.705C31.7832 133.396 31.9485 133.032 32.0187 132.643C32.0889 132.255 32.0619 131.855 31.9399 131.48C31.818 131.105 31.6049 130.765 31.3199 130.493C31.0348 130.22 30.6866 130.022 30.3063 129.916L25.0393 128.455L22.5011 124.622V78.1414C24.8421 78.7452 27.2502 79.0499 29.6679 79.0483H44.0016V88.7588C40.6756 89.179 37.5187 90.4667 34.8477 92.4928C32.1768 94.5188 30.0859 97.2119 28.7849 100.302C27.4839 103.391 27.0185 106.769 27.4356 110.095C27.8527 113.421 29.1376 116.58 31.1611 119.252C33.1847 121.925 35.8758 124.019 38.9643 125.322C42.0528 126.626 45.4299 127.095 48.7566 126.681C52.0834 126.267 55.2427 124.985 57.9173 122.964C60.592 120.943 62.6879 118.253 63.9946 115.166C64.1779 114.734 64.2297 114.257 64.1434 113.795C64.0571 113.333 63.8366 112.907 63.5095 112.57C63.1824 112.233 62.7632 112 62.3043 111.9C61.8453 111.8 61.3671 111.837 60.9293 112.007C59.8433 112.429 58.6708 112.58 57.5134 112.446C56.3561 112.313 55.2488 111.899 54.2873 111.241C53.3259 110.583 52.5394 109.7 51.9959 108.67C51.4525 107.639 51.1684 106.492 51.1684 105.327C51.1797 103.461 51.9141 101.672 53.2173 100.336C54.5205 99.0006 56.2909 98.2224 58.156 98.1653C58.6252 98.1535 59.0805 98.0037 59.4651 97.7347C59.8497 97.4656 60.1466 97.0893 60.3186 96.6526C60.4906 96.2159 60.5301 95.7383 60.4323 95.2792C60.3345 94.8202 60.1037 94.4002 59.7686 94.0715C56.7906 91.1383 52.9278 89.2698 48.7794 88.7561V79.0483H75.0578V92.5369L72.3535 96.6223L67.0847 98.0835C66.7045 98.1889 66.3562 98.3869 66.0712 98.6598C65.7861 98.9327 65.5731 99.272 65.4511 99.6473C65.3292 100.023 65.3021 100.422 65.3723 100.811C65.4426 101.199 65.6079 101.564 65.8535 101.873L69.2578 106.151L69.0189 111.613C69.0017 112.007 69.0824 112.4 69.2539 112.755C69.4253 113.11 69.6821 113.418 70.0014 113.65C70.3207 113.882 70.6924 114.031 71.0834 114.084C71.4744 114.137 71.8725 114.093 72.2422 113.955L77.3629 112.04L82.4836 113.955C82.8532 114.093 83.2513 114.137 83.6423 114.084C84.0333 114.031 84.4051 113.882 84.7243 113.65C85.0436 113.418 85.3004 113.11 85.4719 112.755C85.6433 112.4 85.724 112.007 85.7069 111.613L85.468 106.151L88.8722 101.873C89.1178 101.564 89.2832 101.199 89.3534 100.811C89.4236 100.422 89.3965 100.023 89.2746 99.6473C89.1526 99.272 88.9396 98.9327 88.6545 98.6598C88.3695 98.3869 88.0213 98.1889 87.641 98.0835L82.374 96.6223L79.8357 92.7893V79.0483H82.2247C86.3482 79.0528 90.4236 78.1622 94.1694 76.4381V117.203L91.4651 121.288L86.1963 122.749C85.816 122.855 85.4678 123.053 85.1827 123.326C84.8977 123.599 84.6847 123.938 84.5627 124.313C84.4408 124.688 84.4137 125.088 84.4839 125.476C84.5541 125.865 84.7194 126.23 84.9651 126.538L88.3693 130.817L88.1304 136.279C88.1132 136.673 88.194 137.065 88.3654 137.421C88.5369 137.776 88.7937 138.084 89.113 138.316C89.4322 138.548 89.804 138.697 90.195 138.75C90.586 138.803 90.9841 138.759 91.3537 138.621L96.4744 136.706L101.595 138.621C101.965 138.759 102.363 138.803 102.754 138.75C103.145 138.697 103.517 138.548 103.836 138.316C104.155 138.084 104.412 137.776 104.583 137.421C104.755 137.065 104.836 136.673 104.818 136.279L104.58 130.817L107.984 126.538C108.229 126.23 108.395 125.865 108.465 125.476C108.535 125.088 108.508 124.688 108.386 124.313C108.264 123.938 108.051 123.599 107.766 123.326C107.481 123.053 107.133 122.855 106.753 122.749ZM25.5514 133.556L23.8389 135.708C23.4804 136.159 23.2968 136.724 23.322 137.3L23.4414 140.047L20.8649 139.084C20.3257 138.882 19.7319 138.882 19.1927 139.084L16.6162 140.047L16.7356 137.3C16.7607 136.724 16.577 136.159 16.2184 135.708L14.5062 133.556L17.157 132.821C17.7121 132.667 18.1929 132.317 18.5106 131.837L20.0291 129.543L21.5476 131.837C21.8654 132.317 22.3462 132.667 22.9012 132.821L25.5514 133.556ZM46.3905 105.327C46.394 108.286 47.4943 111.139 49.4789 113.334C51.4634 115.529 54.1912 116.911 57.1351 117.212C55.3675 119.21 53.0775 120.675 50.5225 121.443C47.9676 122.21 45.2491 122.249 42.6731 121.556C40.0971 120.862 37.7657 119.464 35.9413 117.517C34.1168 115.571 32.8718 113.154 32.3462 110.539C31.8207 107.923 32.0354 105.213 32.9664 102.713C33.8973 100.213 35.5074 98.0224 37.6156 96.3876C39.7238 94.7529 42.2464 93.7389 44.8995 93.4599C47.5526 93.1808 50.2309 93.6476 52.6331 94.8079C50.736 95.8297 49.1527 97.3485 48.0529 99.2015C46.9532 101.055 46.3785 103.172 46.3905 105.327ZM82.8861 101.723L81.1735 103.876C80.8151 104.327 80.6315 104.892 80.6566 105.467L80.7761 108.214L78.1996 107.251C77.6604 107.05 77.0665 107.05 76.5273 107.251L73.9509 108.214L74.0703 105.467C74.0953 104.892 73.9116 104.327 73.5531 103.876L71.8408 101.723L74.4917 100.988C75.0467 100.834 75.5274 100.485 75.8453 100.004L77.3638 97.7102L78.8822 100.004C79.2001 100.485 79.6808 100.834 80.2359 100.988L82.8861 101.723ZM82.2247 74.2705H79.8357V60.2133C80.3766 59.7295 80.7579 59.0928 80.9291 58.3876C81.1003 57.6823 81.0533 56.9417 80.7943 56.2637C80.5354 55.5858 80.0766 55.0024 79.4789 54.5909C78.8811 54.1793 78.1725 53.959 77.4468 53.959C76.721 53.959 76.0124 54.1793 75.4147 54.5909C74.8169 55.0024 74.3582 55.5858 74.0992 56.2637C73.8403 56.9417 73.7933 57.6823 73.9645 58.3876C74.1356 59.0928 74.5169 59.7295 75.0578 60.2133V74.2705H48.7794V60.2133C49.3204 59.7295 49.7016 59.0928 49.8728 58.3876C50.044 57.6823 49.997 56.9417 49.738 56.2637C49.4791 55.5858 49.0204 55.0024 48.4226 54.5909C47.8249 54.1793 47.1162 53.959 46.3905 53.959C45.6648 53.959 44.9561 54.1793 44.3584 54.5909C43.7606 55.0024 43.3019 55.5858 43.043 56.2637C42.784 56.9417 42.737 57.6823 42.9082 58.3876C43.0793 59.0928 43.4606 59.7295 44.0016 60.2133V74.2705H29.6679C27.2368 74.272 24.8198 73.9011 22.5011 73.1706V60.2133C23.042 59.7295 23.4233 59.0928 23.5944 58.3876C23.7656 57.6823 23.7186 56.9417 23.4596 56.2637C23.2007 55.5858 22.742 55.0024 22.1442 54.5909C21.5465 54.1793 20.8378 53.959 20.1121 53.959C19.3864 53.959 18.6778 54.1793 18.08 54.5909C17.4822 55.0024 17.0235 55.5858 16.7646 56.2637C16.5056 56.9417 16.4586 57.6823 16.6298 58.3876C16.801 59.0928 17.1822 59.7295 17.7232 60.2133V71.0564C14.094 68.9602 11.08 65.9465 8.98342 62.3175C6.88688 58.6886 5.78159 54.572 5.77845 50.381C5.75628 44.9205 7.62669 39.621 11.0715 35.3841C14.4414 31.2145 19.111 28.294 24.3349 27.0888C24.8952 26.9611 25.3907 26.6358 25.7306 26.1723C27.6352 23.5701 30.2516 21.5739 33.2645 20.4242C36.2774 19.2746 39.5584 19.0204 42.7124 19.6923C43.1917 19.7939 43.6905 19.7458 44.1415 19.5543C44.5924 19.3629 44.9736 19.0374 45.2334 18.6221C47.7494 14.5924 51.4095 11.4041 55.7461 9.46455C60.0828 7.52497 64.8993 6.92213 69.5802 7.73302C74.2612 8.54391 78.5941 10.7317 82.0257 14.017C85.4573 17.3023 87.8317 21.5359 88.8456 26.1771C88.9313 26.5719 89.1158 26.9386 89.3817 27.2427C89.6476 27.5469 89.9864 27.7786 90.3662 27.9163C94.1635 29.2913 97.5499 31.607 100.209 34.6468C102.868 37.6866 104.712 41.3511 105.569 45.2976C106.426 49.2441 106.269 53.3436 105.111 57.2125C103.952 61.0815 101.832 64.5934 98.9473 67.4199V60.2133C99.4882 59.7295 99.8695 59.0928 100.041 58.3876C100.212 57.6823 100.165 56.9417 99.9059 56.2637C99.6469 55.5858 99.1882 55.0024 98.5904 54.5909C97.9927 54.1793 97.2841 53.959 96.5583 53.959C95.8326 53.959 95.124 54.1793 94.5262 54.5909C93.9285 55.0024 93.4698 55.5858 93.2108 56.2637C92.9518 56.9417 92.9048 57.6823 93.076 58.3876C93.2472 59.0928 93.6285 59.7295 94.1694 60.2133V71.0564C90.5419 73.1648 86.4203 74.2738 82.2247 74.2705ZM100.285 128.542C99.9266 128.992 99.743 129.558 99.7682 130.133L99.8876 132.88L97.3111 131.917C96.7719 131.715 96.1781 131.715 95.6389 131.917L93.0624 132.88L93.1819 130.133C93.2069 129.557 93.0233 128.992 92.6647 128.542L90.9524 126.389L93.6032 125.654C94.1583 125.5 94.6391 125.151 94.9568 124.67L96.4753 122.376L97.9938 124.67C98.3117 125.15 98.7924 125.5 99.3474 125.654L101.998 126.389L100.285 128.542Z" fill="black" stroke="black" stroke-width="1.38993"/>
</mask>
<g mask="url(#mask0_2121_398)">
<path d="M62.0488 93.7695C62.0488 93.7695 72.6129 91.7903 77.4494 91.7904C82.2858 91.7904 92.2391 93.7695 92.2391 93.7695V115.791H62.0488V93.7695Z" fill="#FFB800"/>
<path d="M81.0645 118.604C81.0645 118.604 91.6285 116.625 96.465 116.625C101.301 116.625 111.255 118.604 111.255 118.604V140.626H81.0645V118.604Z" fill="#FFB800"/>
<path d="M25.8311 90.8079C25.8311 90.8079 41.8546 86.4911 48.5808 87.3211C55.307 88.151 70.4283 90.8079 70.4283 90.8079V129.606H25.8311V90.8079Z" fill="#FFB800"/>
<path d="M4.5459 125.675C4.5459 125.675 15.11 123.696 19.9464 123.696C24.7829 123.696 34.7362 125.675 34.7362 125.675V147.697H4.5459V125.675Z" fill="#FFB800"/>
</g>
<path d="M171.415 29.351C171.934 29.0916 172.712 28.8321 173.75 28.5727C174.84 28.2613 175.929 28.1057 177.019 28.1057C178.939 28.1057 180.522 28.3911 181.767 28.9619C183.064 29.5327 183.843 30.3629 184.102 31.4526C185.036 34.5661 185.866 37.3941 186.593 39.9368C187.319 42.4794 188.02 44.9442 188.694 47.3312C189.369 49.7182 190.044 52.2089 190.718 54.8035H191.107C191.834 50.4446 192.482 46.3193 193.053 42.4275C193.624 38.4838 194.169 34.592 194.688 30.7521C195.207 26.8603 195.726 22.8647 196.245 18.7653C197.905 17.8832 199.643 17.4421 201.46 17.4421C203.172 17.4421 204.625 17.8053 205.818 18.5318C207.012 19.2583 207.609 20.4777 207.609 22.1901C207.609 23.2798 207.479 24.8625 207.219 26.9381C206.96 28.9619 206.623 31.3229 206.208 34.0212C205.792 36.6676 205.299 39.4179 204.729 42.2718C204.21 45.0739 203.639 47.8501 203.016 50.6003C202.445 53.3505 201.823 55.8413 201.148 58.0726C200.526 60.252 199.955 62.0163 199.436 63.3654C198.709 63.9362 197.594 64.4551 196.089 64.9222C194.584 65.3373 193.027 65.5449 191.419 65.5449C189.343 65.5449 187.553 65.2595 186.048 64.6887C184.595 64.066 183.687 63.2357 183.324 62.1979C182.857 60.6931 182.286 58.9288 181.611 56.905C180.989 54.8813 180.314 52.65 179.588 50.2111C178.913 47.7723 178.238 45.2815 177.564 42.7389C176.941 45.2296 176.293 47.7723 175.618 50.3668C174.943 52.9613 174.295 55.3743 173.672 57.6056C173.049 59.8369 172.479 61.7568 171.96 63.3654C171.285 63.9362 170.273 64.4551 168.924 64.9222C167.575 65.3373 166.07 65.5449 164.41 65.5449C162.438 65.5449 160.622 65.2335 158.961 64.6108C157.352 63.9881 156.289 63.1838 155.77 62.1979C155.251 61.0044 154.654 59.2142 153.98 56.8272C153.305 54.3883 152.578 51.6122 151.8 48.4987C151.074 45.3334 150.347 42.0383 149.621 38.6135C148.946 35.1888 148.323 31.8677 147.753 28.6505C147.182 25.3814 146.767 22.4496 146.507 19.855C147.13 19.2323 147.986 18.6875 149.076 18.2205C150.217 17.7016 151.463 17.4421 152.812 17.4421C154.524 17.4421 155.899 17.8313 156.937 18.6097C158.027 19.3361 158.728 20.5815 159.039 22.3458C159.869 27.1197 160.544 31.2191 161.063 34.6439C161.633 38.0687 162.1 41.0005 162.464 43.4394C162.879 45.8783 163.242 48.0058 163.553 49.8219C163.865 51.6381 164.202 53.2986 164.565 54.8035H164.954C165.473 52.6759 165.966 50.6781 166.433 48.8101C166.9 46.942 167.393 45.0739 167.912 43.2059C168.431 41.3378 168.976 39.2881 169.547 37.0568C170.118 34.8255 170.74 32.2569 171.415 29.351ZM219.353 51.7679L218.886 43.9842L238.268 40.9486C238.112 39.4438 237.463 38.0946 236.322 36.9011C235.18 35.6558 233.494 35.0331 231.262 35.0331C228.875 35.0331 226.903 35.8374 225.347 37.446C223.79 39.0027 222.986 41.26 222.934 44.2177L223.245 49.5106C223.764 52.3646 225.009 54.4143 226.981 55.6597C228.953 56.8531 231.288 57.4499 233.987 57.4499C236.166 57.4499 238.216 57.1645 240.136 56.5937C242.056 55.971 243.612 55.2964 244.806 54.57C245.532 55.037 246.155 55.6856 246.674 56.5159C247.193 57.3461 247.452 58.2283 247.452 59.1623C247.452 60.719 246.83 62.0163 245.584 63.0541C244.391 64.0919 242.704 64.8703 240.525 65.3892C238.397 65.9081 235.958 66.1675 233.208 66.1675C229.213 66.1675 225.632 65.4151 222.467 63.9103C219.301 62.4055 216.811 60.1482 214.995 57.1385C213.178 54.1289 212.27 50.3668 212.27 45.8523C212.27 42.5313 212.789 39.6514 213.827 37.2125C214.865 34.7736 216.266 32.7758 218.03 31.2191C219.846 29.6105 221.87 28.417 224.101 27.6386C226.385 26.8603 228.746 26.4711 231.184 26.4711C234.765 26.4711 237.878 27.1976 240.525 28.6505C243.223 30.0516 245.325 31.9715 246.83 34.4104C248.334 36.8493 249.087 39.6773 249.087 42.8945C249.087 44.5031 248.646 45.7226 247.764 46.5528C246.881 47.3312 245.662 47.8501 244.105 48.1096L219.353 51.7679ZM256.636 44.4513L268.078 44.6848V64.9222C267.611 65.0259 266.911 65.1557 265.977 65.3113C265.043 65.467 264.031 65.5449 262.941 65.5449C260.762 65.5449 259.153 65.1557 258.115 64.3773C257.129 63.5989 256.636 62.1979 256.636 60.1742V44.4513ZM268.078 50.6003L256.636 50.3668V14.3287C257.103 14.173 257.804 14.0173 258.738 13.8616C259.672 13.706 260.684 13.6281 261.773 13.6281C264.005 13.6281 265.613 14.0173 266.599 14.7957C267.585 15.5222 268.078 16.9232 268.078 18.9988V50.6003ZM297.764 35.6558C294.91 35.6558 292.471 36.5898 290.448 38.4579C288.476 40.274 287.49 42.9464 287.49 46.475C287.49 49.9517 288.45 52.5722 290.37 54.3364C292.29 56.1007 294.729 56.9829 297.686 56.9829C299.399 56.9829 300.878 56.7753 302.123 56.3602C303.42 55.8932 304.536 55.4262 305.47 54.9591C306.352 55.5818 307.027 56.2564 307.494 56.9829C307.961 57.7093 308.194 58.6174 308.194 59.7071C308.194 61.6271 307.156 63.1838 305.081 64.3773C303.005 65.5189 300.125 66.0897 296.441 66.0897C292.342 66.0897 288.735 65.3632 285.622 63.9103C282.508 62.4574 280.095 60.252 278.383 57.2942C276.722 54.3364 275.892 50.73 275.892 46.475C275.892 41.9605 276.8 38.2503 278.616 35.3444C280.485 32.3867 282.949 30.1813 286.011 28.7284C289.124 27.2235 292.497 26.4711 296.13 26.4711C299.71 26.4711 302.512 27.1197 304.536 28.417C306.612 29.7143 307.649 31.3229 307.649 33.2428C307.649 34.1769 307.416 35.0331 306.949 35.8114C306.534 36.5379 306.041 37.1606 305.47 37.6795C304.484 37.1606 303.342 36.6936 302.045 36.2785C300.8 35.8633 299.373 35.6558 297.764 35.6558ZM352.067 46.3193C352.067 50.3668 351.263 53.8954 349.654 56.905C348.046 59.8628 345.762 62.146 342.805 63.7546C339.847 65.3632 336.37 66.1675 332.375 66.1675C328.379 66.1675 324.902 65.3892 321.944 63.8325C318.987 62.2238 316.703 59.9406 315.095 56.9829C313.486 53.9732 312.682 50.4187 312.682 46.3193C312.682 42.2718 313.486 38.7692 315.095 35.8114C316.755 32.8537 319.065 30.5705 322.022 28.9619C325.032 27.3014 328.483 26.4711 332.375 26.4711C336.318 26.4711 339.769 27.3014 342.727 28.9619C345.684 30.5705 347.968 32.8796 349.576 35.8893C351.237 38.8471 352.067 42.3237 352.067 46.3193ZM332.375 35.5779C329.936 35.5779 327.99 36.512 326.537 38.38C325.136 40.2481 324.435 42.8945 324.435 46.3193C324.435 49.796 325.136 52.4684 326.537 54.3364C327.938 56.2045 329.884 57.1385 332.375 57.1385C334.917 57.1385 336.863 56.2045 338.212 54.3364C339.613 52.4165 340.314 49.7441 340.314 46.3193C340.314 42.9464 339.613 40.3259 338.212 38.4579C336.811 36.5379 334.865 35.5779 332.375 35.5779ZM393.252 39.2362V48.1096H381.81V40.7151C381.81 38.8989 381.265 37.6017 380.176 36.8233C379.138 35.9931 377.841 35.5779 376.284 35.5779C375.142 35.5779 374.104 35.7596 373.17 36.1228C372.236 36.4341 371.458 36.7714 370.835 37.1347V48.1096H359.393V35.9671C359.393 34.6698 359.653 33.6061 360.172 32.7758C360.743 31.8937 361.573 31.1153 362.662 30.4407C364.323 29.2473 366.399 28.2873 368.889 27.5608C371.38 26.8343 373.975 26.4711 376.673 26.4711C379.164 26.4711 381.499 26.8603 383.678 27.6386C385.858 28.417 387.752 29.6105 389.36 31.2191C389.775 31.5305 390.165 31.8677 390.528 32.231C390.891 32.5423 391.176 32.9056 391.384 33.3207C391.903 34.1509 392.344 35.085 392.707 36.1228C393.07 37.1606 393.252 38.1984 393.252 39.2362ZM415.669 40.3259V48.1096H404.149V40.7151C404.149 38.8989 403.656 37.6017 402.67 36.8233C401.684 35.9931 400.387 35.5779 398.778 35.5779C397.585 35.5779 396.443 35.8114 395.354 36.2785C394.264 36.7455 393.356 37.3422 392.629 38.0687L386.558 31.3748C388.271 30.0775 390.216 28.9359 392.396 27.95C394.575 26.9641 397.248 26.4711 400.413 26.4711C403.111 26.4711 405.602 26.9381 407.885 27.8722C410.22 28.8062 412.088 30.2851 413.489 32.3088C414.942 34.3326 415.669 37.0049 415.669 40.3259ZM359.393 44.5291H370.835V64.9222C370.368 65.0259 369.668 65.1557 368.734 65.3113C367.8 65.467 366.788 65.5449 365.698 65.5449C363.519 65.5449 361.91 65.1557 360.872 64.3773C359.886 63.5989 359.393 62.1979 359.393 60.1742V44.5291ZM381.81 44.5291H393.252V64.9222C392.785 65.0259 392.085 65.1557 391.151 65.3113C390.216 65.467 389.205 65.5449 388.115 65.5449C385.936 65.5449 384.327 65.1557 383.289 64.3773C382.303 63.5989 381.81 62.1979 381.81 60.1742V44.5291ZM404.149 44.5291H415.669V64.9222C415.15 65.0259 414.424 65.1557 413.489 65.3113C412.555 65.467 411.57 65.5449 410.532 65.5449C408.3 65.5449 406.666 65.1557 405.628 64.3773C404.642 63.5989 404.149 62.1979 404.149 60.1742V44.5291ZM430.058 51.7679L429.591 43.9842L448.972 40.9486C448.817 39.4438 448.168 38.0946 447.027 36.9011C445.885 35.6558 444.198 35.0331 441.967 35.0331C439.58 35.0331 437.608 35.8374 436.052 37.446C434.495 39.0027 433.691 41.26 433.639 44.2177L433.95 49.5106C434.469 52.3646 435.714 54.4143 437.686 55.6597C439.658 56.8531 441.993 57.4499 444.691 57.4499C446.871 57.4499 448.921 57.1645 450.841 56.5937C452.76 55.971 454.317 55.2964 455.511 54.57C456.237 55.037 456.86 55.6856 457.379 56.5159C457.898 57.3461 458.157 58.2283 458.157 59.1623C458.157 60.719 457.534 62.0163 456.289 63.0541C455.096 64.0919 453.409 64.8703 451.23 65.3892C449.102 65.9081 446.663 66.1675 443.913 66.1675C439.918 66.1675 436.337 65.4151 433.172 63.9103C430.006 62.4055 427.516 60.1482 425.699 57.1385C423.883 54.1289 422.975 50.3668 422.975 45.8523C422.975 42.5313 423.494 39.6514 424.532 37.2125C425.57 34.7736 426.971 32.7758 428.735 31.2191C430.551 29.6105 432.575 28.417 434.806 27.6386C437.089 26.8603 439.45 26.4711 441.889 26.4711C445.47 26.4711 448.583 27.1976 451.23 28.6505C453.928 30.0516 456.03 31.9715 457.534 34.4104C459.039 36.8493 459.792 39.6773 459.792 42.8945C459.792 44.5031 459.351 45.7226 458.468 46.5528C457.586 47.3312 456.367 47.8501 454.81 48.1096L430.058 51.7679ZM514.292 41.3378C514.292 37.913 513.695 35.085 512.501 32.8537C511.36 30.6224 509.751 28.9619 507.675 27.8722C505.6 26.7306 503.213 26.1598 500.515 26.1598C499.581 26.1598 498.672 26.1857 497.79 26.2376C496.908 26.2895 496.052 26.3933 495.222 26.5489V56.1267C495.948 56.2824 496.804 56.4121 497.79 56.5159C498.828 56.5678 499.788 56.5937 500.67 56.5937C504.821 56.5937 508.117 55.3224 510.555 52.7797C513.046 50.2371 514.292 46.4231 514.292 41.3378ZM526.434 41.1821C526.434 46.7863 525.344 51.4306 523.165 55.1148C521.037 58.7991 518.028 61.5752 514.136 63.4433C510.296 65.2595 505.781 66.1675 500.592 66.1675C498.88 66.1675 496.778 66.0378 494.288 65.7784C491.797 65.5708 489.54 65.1038 487.516 64.3773C484.818 63.3914 483.468 61.679 483.468 59.2401V21.9566C483.468 20.9188 483.754 20.1404 484.325 19.6215C484.895 19.0507 485.674 18.5837 486.66 18.2205C488.735 17.5459 490.941 17.1048 493.276 16.8973C495.663 16.6897 497.842 16.5859 499.814 16.5859C505.159 16.5859 509.803 17.494 513.747 19.3102C517.742 21.0745 520.856 23.7728 523.087 27.4051C525.318 31.0375 526.434 35.6298 526.434 41.1821ZM545.511 37.6795V47.409H534.069V36.2785C534.069 34.8255 534.406 33.6061 535.081 32.6202C535.807 31.5823 536.793 30.6743 538.038 29.8959C539.751 28.8581 541.8 28.0538 544.187 27.483C546.626 26.8603 549.169 26.5489 551.815 26.5489C557.108 26.5489 559.755 28.3132 559.755 31.8418C559.755 32.672 559.625 33.4504 559.365 34.1769C559.158 34.8515 558.872 35.4482 558.509 35.9671C557.99 35.8633 557.342 35.7855 556.563 35.7336C555.837 35.6817 555.058 35.6558 554.228 35.6558C552.62 35.6558 551.037 35.8374 549.48 36.2006C547.975 36.512 546.652 37.0049 545.511 37.6795ZM534.069 44.4513L545.511 44.6848V64.9222C545.044 65.0259 544.343 65.1557 543.409 65.3113C542.475 65.467 541.463 65.5449 540.373 65.5449C538.194 65.5449 536.585 65.1557 535.548 64.3773C534.562 63.5989 534.069 62.1979 534.069 60.1742V44.4513ZM569.616 51.7679L569.149 43.9842L588.53 40.9486C588.375 39.4438 587.726 38.0946 586.584 36.9011C585.443 35.6558 583.756 35.0331 581.525 35.0331C579.138 35.0331 577.166 35.8374 575.609 37.446C574.053 39.0027 573.248 41.26 573.196 44.2177L573.508 49.5106C574.027 52.3646 575.272 54.4143 577.244 55.6597C579.216 56.8531 581.551 57.4499 584.249 57.4499C586.429 57.4499 588.478 57.1645 590.398 56.5937C592.318 55.971 593.875 55.2964 595.068 54.57C595.795 55.037 596.418 55.6856 596.937 56.5159C597.455 57.3461 597.715 58.2283 597.715 59.1623C597.715 60.719 597.092 62.0163 595.847 63.0541C594.653 64.0919 592.967 64.8703 590.787 65.3892C588.66 65.9081 586.221 66.1675 583.471 66.1675C579.475 66.1675 575.895 65.4151 572.729 63.9103C569.564 62.4055 567.073 60.1482 565.257 57.1385C563.441 54.1289 562.533 50.3668 562.533 45.8523C562.533 42.5313 563.052 39.6514 564.09 37.2125C565.127 34.7736 566.529 32.7758 568.293 31.2191C570.109 29.6105 572.133 28.417 574.364 27.6386C576.647 26.8603 579.008 26.4711 581.447 26.4711C585.028 26.4711 588.141 27.1976 590.787 28.6505C593.486 30.0516 595.587 31.9715 597.092 34.4104C598.597 36.8493 599.349 39.6773 599.349 42.8945C599.349 44.5031 598.908 45.7226 598.026 46.5528C597.144 47.3312 595.925 47.8501 594.368 48.1096L569.616 51.7679ZM621.766 66.1675C616.473 66.1675 612.244 65.1557 609.078 63.1319C605.965 61.0563 604.408 57.9688 604.408 53.8694C604.408 50.3409 605.498 47.6425 607.677 45.7745C609.857 43.8545 613.1 42.687 617.407 42.2718L627.837 41.1821V40.2481C627.837 38.4319 627.136 37.1347 625.735 36.3563C624.334 35.5779 622.388 35.1888 619.898 35.1888C617.926 35.1888 615.98 35.4223 614.06 35.8893C612.14 36.3563 610.428 36.9271 608.923 37.6017C608.3 37.1347 607.781 36.486 607.366 35.6558C606.951 34.8255 606.743 33.9434 606.743 33.0093C606.743 30.8299 607.911 29.2473 610.246 28.2613C611.751 27.6905 613.489 27.2495 615.461 26.9381C617.485 26.6268 619.431 26.4711 621.299 26.4711C626.643 26.4711 630.924 27.6127 634.142 29.8959C637.359 32.1272 638.967 35.6039 638.967 40.3259V57.9947C638.967 59.292 638.63 60.3558 637.956 61.186C637.281 61.9644 636.451 62.639 635.465 63.2098C633.908 64.1438 631.962 64.8703 629.627 65.3892C627.344 65.9081 624.723 66.1675 621.766 66.1675ZM621.766 57.6834C622.959 57.6834 624.127 57.5537 625.268 57.2942C626.462 57.0348 627.318 56.7494 627.837 56.438V48.9658L621.221 49.5106C619.456 49.6663 618.055 50.0555 617.018 50.6781C616.032 51.3008 615.539 52.2349 615.539 53.4802C615.539 54.7775 616.032 55.8153 617.018 56.5937C618.004 57.3202 619.586 57.6834 621.766 57.6834ZM681.793 39.2362V48.1096H670.351V40.7151C670.351 38.8989 669.806 37.6017 668.717 36.8233C667.679 35.9931 666.382 35.5779 664.825 35.5779C663.683 35.5779 662.645 35.7596 661.711 36.1228C660.777 36.4341 659.999 36.7714 659.376 37.1347V48.1096H647.934V35.9671C647.934 34.6698 648.194 33.6061 648.713 32.7758C649.284 31.8937 650.114 31.1153 651.204 30.4407C652.864 29.2473 654.94 28.2873 657.43 27.5608C659.921 26.8343 662.516 26.4711 665.214 26.4711C667.705 26.4711 670.04 26.8603 672.219 27.6386C674.399 28.417 676.293 29.6105 677.901 31.2191C678.316 31.5305 678.706 31.8677 679.069 32.231C679.432 32.5423 679.718 32.9056 679.925 33.3207C680.444 34.1509 680.885 35.085 681.248 36.1228C681.612 37.1606 681.793 38.1984 681.793 39.2362ZM704.21 40.3259V48.1096H692.69V40.7151C692.69 38.8989 692.197 37.6017 691.211 36.8233C690.225 35.9931 688.928 35.5779 687.32 35.5779C686.126 35.5779 684.984 35.8114 683.895 36.2785C682.805 36.7455 681.897 37.3422 681.17 38.0687L675.099 31.3748C676.812 30.0775 678.758 28.9359 680.937 27.95C683.116 26.9641 685.789 26.4711 688.954 26.4711C691.652 26.4711 694.143 26.9381 696.426 27.8722C698.761 28.8062 700.629 30.2851 702.031 32.3088C703.483 34.3326 704.21 37.0049 704.21 40.3259ZM647.934 44.5291H659.376V64.9222C658.909 65.0259 658.209 65.1557 657.275 65.3113C656.341 65.467 655.329 65.5449 654.239 65.5449C652.06 65.5449 650.451 65.1557 649.413 64.3773C648.427 63.5989 647.934 62.1979 647.934 60.1742V44.5291ZM670.351 44.5291H681.793V64.9222C681.326 65.0259 680.626 65.1557 679.692 65.3113C678.758 65.467 677.746 65.5449 676.656 65.5449C674.477 65.5449 672.868 65.1557 671.83 64.3773C670.844 63.5989 670.351 62.1979 670.351 60.1742V44.5291ZM692.69 44.5291H704.21V64.9222C703.691 65.0259 702.965 65.1557 702.031 65.3113C701.097 65.467 700.111 65.5449 699.073 65.5449C696.841 65.5449 695.207 65.1557 694.169 64.3773C693.183 63.5989 692.69 62.1979 692.69 60.1742V44.5291Z" fill="#F1F5F9"/>
<path d="M161.096 118.083C156.648 118.083 152.993 116.624 150.129 113.705C147.266 110.814 145.835 107.228 145.835 102.947C145.835 98.6657 147.266 95.0797 150.129 92.1887C152.993 89.2698 156.648 87.8104 161.096 87.8104C163.737 87.8104 166.183 88.4497 168.435 89.7285C170.686 91.0072 172.438 92.7307 173.689 94.899L170.311 96.8588C169.477 95.2465 168.226 93.9678 166.558 93.0226C164.918 92.0497 163.097 91.5632 161.096 91.5632C157.705 91.5632 154.952 92.6473 152.84 94.8156C150.727 96.9561 149.671 99.6665 149.671 102.947C149.671 106.199 150.727 108.896 152.84 111.036C154.952 113.204 157.705 114.289 161.096 114.289C163.097 114.289 164.918 113.816 166.558 112.871C168.226 111.898 169.477 110.619 170.311 109.035L173.689 110.953C172.466 113.121 170.728 114.858 168.477 116.165C166.253 117.444 163.792 118.083 161.096 118.083ZM192.733 105.032L199.739 88.3525H203.658L194.276 110.619C192.191 115.512 188.841 117.819 184.227 117.541V113.955C185.811 114.122 187.104 113.899 188.105 113.288C189.133 112.648 189.981 111.537 190.648 109.952L190.94 109.285L181.058 88.3525H184.977L192.733 105.032ZM229.514 102.405C230.876 103.072 231.947 104.003 232.725 105.198C233.503 106.394 233.892 107.756 233.892 109.285C233.892 111.62 233.072 113.58 231.432 115.164C229.792 116.749 227.791 117.541 225.428 117.541H212.835V88.3525H224.51C226.818 88.3525 228.75 89.1169 230.306 90.6458C231.891 92.1748 232.683 94.0651 232.683 96.3168C232.683 98.9298 231.627 100.959 229.514 102.405ZM224.51 91.9802H216.713V100.904H224.51C225.734 100.904 226.762 100.473 227.596 99.6109C228.43 98.7491 228.847 97.6928 228.847 96.4419C228.847 95.2187 228.416 94.1763 227.554 93.3145C226.72 92.425 225.706 91.9802 224.51 91.9802ZM216.713 113.913H225.428C226.734 113.913 227.832 113.455 228.722 112.537C229.611 111.62 230.056 110.494 230.056 109.16C230.056 107.853 229.598 106.741 228.68 105.824C227.818 104.907 226.734 104.448 225.428 104.448H216.713V113.913ZM247.996 104.615V113.872H261.548V117.541H244.118V88.3525H261.339V92.0219H247.996V100.987H260.297V104.615H247.996ZM289.914 100.737V88.3525H293.75V117.541H289.914V104.406H275.737V117.541H271.859V88.3525H275.737V100.737H289.914ZM327.642 117.541H323.765V95.7747L308.753 117.541H305.626V88.3525H309.504V110.16L324.515 88.3525H327.642V117.541ZM339.515 88.3525H350.107C352.775 88.3525 355.013 89.2559 356.82 91.0628C358.627 92.8697 359.53 95.0936 359.53 97.7345C359.53 100.375 358.627 102.599 356.82 104.406C355.013 106.213 352.775 107.117 350.107 107.117H343.393V117.541H339.515V88.3525ZM343.393 103.489H350.107C351.747 103.489 353.081 102.947 354.11 101.863C355.166 100.723 355.694 99.3468 355.694 97.7345C355.694 96.0666 355.166 94.6905 354.11 93.6064C353.053 92.5223 351.719 91.9802 350.107 91.9802H343.393V103.489ZM387.795 100.737V88.3525H391.631V117.541H387.795V104.406H373.618V117.541H369.74V88.3525H373.618V100.737H387.795ZM414.098 117.541H403.507V88.3525H407.385V98.7769H414.098C416.767 98.7769 419.005 99.6804 420.812 101.487C422.619 103.294 423.522 105.518 423.522 108.159C423.522 110.828 422.619 113.065 420.812 114.872C419.032 116.651 416.795 117.541 414.098 117.541ZM430.36 117.541H426.483V88.3525H430.36V117.541ZM407.385 102.405V113.913H414.098C415.711 113.913 417.045 113.371 418.101 112.287C419.158 111.203 419.686 109.827 419.686 108.159C419.686 106.491 419.158 105.115 418.101 104.031C417.045 102.947 415.711 102.405 414.098 102.405H407.385ZM458.88 85.2251H447.621V82.0561H458.88V85.2251ZM464.259 117.541H460.381V95.7747L445.369 117.541H442.242V88.3525H446.12V110.16L461.131 88.3525H464.259V117.541ZM515.119 88.3525H519.497V117.541H515.661V94.7322L506.112 110.619H505.612L496.063 94.7739V117.541H492.185V88.3525H496.563L505.862 103.781L515.119 88.3525ZM554.719 117.541H550.591L548.214 110.994H535.079L532.702 117.541H528.574L539.458 88.3525H543.836L554.719 117.541ZM541.626 92.9809L536.414 107.367H546.88L541.626 92.9809ZM563.792 88.3525H580.179V92.0219H567.669V117.541H563.792V88.3525ZM609.671 117.541H605.543L603.166 110.994H590.031L587.654 117.541H583.526L594.409 88.3525H598.788L609.671 117.541ZM596.578 92.9809L591.365 107.367H601.831L596.578 92.9809ZM632.921 102.446C636.09 103.808 637.674 106.185 637.674 109.577C637.674 112.079 636.729 114.122 634.839 115.706C632.976 117.291 630.502 118.083 627.416 118.083C624.692 118.083 622.454 117.485 620.703 116.29C618.98 115.095 617.756 113.455 617.034 111.37L620.328 109.493C621.19 112.774 623.552 114.414 627.416 114.414C629.418 114.414 630.975 113.969 632.087 113.079C633.226 112.19 633.796 110.981 633.796 109.452C633.796 107.923 633.268 106.713 632.212 105.824C631.155 104.907 629.71 104.448 627.875 104.448H624.456V100.904H626.916C628.667 100.904 630.071 100.473 631.128 99.6109C632.212 98.7213 632.754 97.5677 632.754 96.15C632.754 94.7322 632.253 93.5925 631.253 92.7307C630.252 91.869 628.89 91.4381 627.166 91.4381C623.942 91.4381 621.787 92.8697 620.703 95.733L617.451 93.8566C619.202 89.8258 622.44 87.8104 627.166 87.8104C629.974 87.8104 632.239 88.5887 633.963 90.1455C635.714 91.6744 636.59 93.6481 636.59 96.0666C636.59 98.8742 635.367 101.001 632.921 102.446ZM669.926 117.541H666.048V95.7747L651.036 117.541H647.909V88.3525H651.787V110.16L666.798 88.3525H669.926V117.541ZM699.854 100.737V88.3525H703.69V117.541H699.854V104.406H685.676V117.541H681.798V88.3525H685.676V100.737H699.854Z" fill="#FFB800"/>
</svg>
